<svg xmlns="http://www.w3.org/2000/svg" width="72.667" height="60" viewBox="0 0 72.667 60">
  <g id="Icon_feather-camera" data-name="Icon feather-camera" transform="translate(0 -3)">
    <path id="Path_8" data-name="Path 8" d="M71.167,55.167A6.333,6.333,0,0,1,64.833,61.5h-57A6.333,6.333,0,0,1,1.5,55.167V20.333A6.333,6.333,0,0,1,7.833,14H20.5l6.333-9.5h19L52.167,14H64.833a6.333,6.333,0,0,1,6.333,6.333Z" transform="translate(0)" fill="none" stroke="#0fa3b1" stroke-linecap="round" stroke-linejoin="round" stroke-width="3"/>
    <path id="Path_9" data-name="Path 9" d="M37.333,26.167A12.667,12.667,0,1,1,24.667,13.5,12.667,12.667,0,0,1,37.333,26.167Z" transform="translate(11.667 10)" fill="none" stroke="#0fa3b1" stroke-linecap="round" stroke-linejoin="round" stroke-width="3"/>
  </g>
</svg>
